# Blender v2.77 (sub 0) OBJ File: ''
# www.blender.org
mtllib crystal_relay_inout.mtl
o Cube.001_Cube.004
v 0.583537 0.255892 0.416463
v 0.583537 0.255892 0.583537
v 0.522785 0.025014 0.522785
v 0.522785 0.025014 0.477215
v 0.416463 0.255892 0.583537
v 0.477215 0.025014 0.522785
v 0.416463 0.255892 0.416463
v 0.477215 0.025014 0.477215
v 0.583537 0.431801 0.416463
v 0.583537 0.431801 0.583537
v 0.416463 0.431801 0.416463
v 0.416463 0.431801 0.583537
v 0.466799 0.572757 0.533201
v 0.466799 0.572757 0.466799
v 0.533201 0.572757 0.533201
v 0.533201 0.572757 0.466799
vt 0.000000 0.594600
vt 0.250000 0.594600
vt 0.158700 0.250000
vt 0.091300 0.250000
vt 0.000000 0.594600
vt 0.250000 0.594600
vt 0.158700 0.250000
vt 0.091300 0.250000
vt 0.000000 0.594600
vt 0.091300 0.250000
vt 0.250000 0.594600
vt 0.158700 0.250000
vt 0.084388 0.898900
vt 0.084388 1.000000
vt 0.185588 1.000000
vt 0.185588 0.898900
vt 0.000000 0.854700
vt 0.250000 0.854700
vt 0.000000 0.793200
vt 0.250000 0.793200
vt 0.169300 1.000000
vt 0.072900 1.000000
vt 0.250000 0.854700
vt 0.000000 0.854700
vt 0.250000 0.854700
vt 0.000000 0.854700
vt 0.208167 0.852500
vt 0.208167 1.000000
vt 0.056367 1.000000
vt 0.056367 0.852500
vt 0.250000 0.793200
vt 0.000000 0.793200
vt 0.072900 1.000000
vt 0.169300 1.000000
vt 0.250000 0.793200
vt 0.169300 1.000000
vt 0.000000 0.793200
vt 0.072900 1.000000
vn 0.9671 -0.2545 -0.0000
vn 0.0000 -0.2545 0.9671
vn -0.9671 -0.2545 -0.0000
vn 0.0000 -0.2545 -0.9671
vn 0.0000 -1.0000 -0.0000
vn 1.0000 0.0000 0.0000
vn -0.9418 0.3363 0.0000
vn 0.0000 0.0000 -1.0000
vn 0.0000 0.0000 1.0000
vn -1.0000 0.0000 0.0000
vn 0.0000 1.0000 0.0000
vn 0.9418 0.3363 0.0000
vn 0.0000 0.3363 -0.9418
vn 0.0000 0.3363 0.9418
usemtl aether_relay_crystal
f 1/1/1 2/2/1 3/3/1 4/4/1
f 2/5/2 5/6/2 6/7/2 3/8/2
f 5/6/3 7/9/3 8/10/3 6/7/3
f 7/11/4 1/1/4 4/4/4 8/12/4
f 4/13/5 3/14/5 6/15/5 8/16/5
f 2/2/6 1/1/6 9/17/6 10/18/6
f 11/19/7 12/20/7 13/21/7 14/22/7
f 1/1/8 7/11/8 11/23/8 9/17/8
f 5/6/9 2/5/9 10/24/9 12/25/9
f 7/9/10 5/6/10 12/25/10 11/26/10
f 14/27/11 13/28/11 15/29/11 16/30/11
f 10/31/12 9/32/12 16/33/12 15/34/12
f 9/32/13 11/35/13 14/36/13 16/33/13
f 12/20/14 10/37/14 15/38/14 13/21/14
o Cube_Cube.001
v 0.625000 0.000000 0.375000
v 0.625000 0.031250 0.375000
v 0.625000 0.000000 0.625000
v 0.625000 0.031250 0.625000
v 0.375000 0.000000 0.375000
v 0.375000 0.031250 0.375000
v 0.375000 0.000000 0.625000
v 0.375000 0.031250 0.625000
vt -0.0000 0.2501
vt 0.2501 0.2501
vt 0.2500 0.0000
vt -0.0000 -0.0000
vt 0.0000 0.2501
vt 0.2501 0.2501
vt 0.2500 0.0000
vt 0.0000 -0.0000
vt -0.0000 0.2501
vt -0.0000 -0.0000
vt 0.2501 0.2501
vt 0.2500 0.0000
vt 0.0000 0.2501
vt 0.2501 0.2501
vt 0.2500 0.0000
vt -0.0000 0.0000
vn 1.0000 0.0000 0.0000
vn 0.0000 0.0000 1.0000
vn -1.0000 0.0000 0.0000
vn 0.0000 0.0000 -1.0000
vn 0.0000 -1.0000 0.0000
vn 0.0000 1.0000 0.0000
usemtl aether_relay_base
f 18/39/15 20/40/15 19/41/15 17/42/15
f 20/43/16 24/44/16 23/45/16 19/46/16
f 24/44/17 22/47/17 21/48/17 23/45/17
f 22/49/18 18/39/18 17/42/18 21/50/18
f 17/42/19 19/51/19 23/52/19 21/50/19
f 22/53/20 24/44/20 20/43/20 18/54/20
